# Blender 4.1.1
# www.blender.org
mtllib floor.mtl
o Plane.001
v -1.000000 0.000000 1.000000
v 1.000000 0.000000 1.000000
v -1.000000 -0.000000 -1.000000
v 1.000000 -0.000000 -1.000000
v -1.000000 -0.000000 -0.750000
v -1.000000 -0.000000 -0.500000
v -1.000000 -0.000000 -0.250000
v -1.000000 0.000000 0.000000
v -1.000000 0.000000 0.250000
v -1.000000 0.000000 0.500000
v -1.000000 0.000000 0.750000
v -0.750000 0.000000 1.000000
v -0.500000 0.000000 1.000000
v -0.250000 0.000000 1.000000
v 0.000000 0.000000 1.000000
v 0.250000 0.000000 1.000000
v 0.500000 0.000000 1.000000
v 0.750000 0.000000 1.000000
v 1.000000 0.000000 0.750000
v 1.000000 0.000000 0.500000
v 1.000000 0.000000 0.250000
v 1.000000 0.000000 0.000000
v 1.000000 -0.000000 -0.250000
v 1.000000 -0.000000 -0.500000
v 1.000000 -0.000000 -0.750000
v 0.750000 -0.000000 -1.000000
v 0.500000 -0.000000 -1.000000
v 0.250000 -0.000000 -1.000000
v 0.000000 -0.000000 -1.000000
v -0.250000 -0.000000 -1.000000
v -0.500000 -0.000000 -1.000000
v -0.750000 -0.000000 -1.000000
v -0.750000 0.000000 0.750000
v -0.500000 0.000000 0.750000
v -0.250000 0.000000 0.750000
v 0.000000 0.000000 0.750000
v 0.250000 0.000000 0.750000
v 0.500000 0.000000 0.750000
v 0.750000 0.000000 0.750000
v -0.750000 0.000000 0.500000
v -0.500000 0.000000 0.500000
v -0.250000 0.000000 0.500000
v 0.000000 0.000000 0.500000
v 0.250000 0.000000 0.500000
v 0.500000 0.000000 0.500000
v 0.750000 0.000000 0.500000
v -0.750000 0.000000 0.250000
v -0.500000 0.000000 0.250000
v -0.250000 0.000000 0.250000
v 0.000000 0.000000 0.250000
v 0.250000 0.000000 0.250000
v 0.500000 0.000000 0.250000
v 0.750000 0.000000 0.250000
v -0.750000 0.000000 0.000000
v -0.500000 0.000000 0.000000
v -0.250000 0.078542 -0.000000
v 0.000000 0.078542 -0.000000
v 0.250000 0.000000 0.000000
v 0.500000 0.000000 0.000000
v 0.750000 0.000000 0.000000
v -0.750000 -0.000000 -0.250000
v -0.500000 -0.000000 -0.250000
v -0.250000 0.078542 -0.250000
v 0.000000 0.078542 -0.250000
v 0.250000 0.078542 -0.250000
v 0.500000 -0.000000 -0.250000
v 0.750000 -0.000000 -0.250000
v -0.750000 -0.000000 -0.500000
v -0.500000 -0.000000 -0.500000
v -0.250000 0.078542 -0.500000
v 0.000000 0.078542 -0.500000
v 0.250000 0.078542 -0.500000
v 0.500000 -0.000000 -0.500000
v 0.750000 -0.000000 -0.500000
v -0.750000 -0.000000 -0.750000
v -0.500000 -0.000000 -0.750000
v -0.250000 0.078542 -0.750000
v 0.000000 0.078542 -0.750000
v 0.250000 -0.000000 -0.750000
v 0.500000 -0.000000 -0.750000
v 0.750000 -0.000000 -0.750000
v -0.500000 0.248086 0.750000
v -0.250000 0.248086 0.750000
v -0.500000 0.248086 0.500000
v -0.250000 0.248086 0.500000
v -0.500000 0.285160 0.750000
v -0.250000 0.285160 0.750000
v -0.500000 0.285160 0.500000
v -0.250000 0.285160 0.500000
v 0.337129 0.248086 0.750000
v -0.250000 0.285160 0.623155
v 0.337129 0.285160 0.750000
v -0.250000 0.248086 0.623155
v -0.760593 0.152743 0.781669
v -0.752800 0.154446 0.531796
v -0.974963 0.132692 0.835167
v -0.967170 0.134396 0.585294
v -0.250000 0.248086 0.564707
v -0.250000 0.285160 0.564707
v 0.750000 0.125743 0.500000
v -0.250000 0.285160 0.507337
v -0.250000 0.248086 0.507337
v 0.500000 0.125743 0.500000
v -0.250000 0.248086 0.280151
v -0.250000 0.285160 0.280151
v 0.337129 0.248086 0.280151
v 0.337129 0.285160 0.280151
v 0.750000 0.098208 0.312500
v 0.500000 0.098208 0.312500
v 0.500000 0.060440 0.250000
v 0.750000 0.060440 0.250000
v 0.500000 0.034611 0.125000
v 0.750000 0.034611 0.062500
v 0.500000 0.169317 0.750000
v 0.750000 0.169317 0.750000
v 0.500000 0.155308 0.531250
v 0.750000 0.155308 0.531250
v -1.000000 0.000000 0.375000
v -0.500000 0.000000 0.375000
v 0.000000 0.000000 0.375000
v 0.500000 0.000000 0.375000
v 0.500000 0.114692 0.375000
v 1.000000 0.000000 0.375000
v -0.750000 0.000000 0.375000
v -0.250000 0.000000 0.375000
v 0.250000 0.000000 0.375000
v 0.750000 0.000000 0.375000
v 0.750000 0.114692 0.375000
v 1.000000 0.000000 0.625000
v -0.250000 0.000000 0.625000
v 0.250000 0.000000 0.625000
v 0.750000 0.000000 0.625000
v 0.750000 0.169317 0.625000
v 0.000000 0.000000 0.625000
v 0.500000 0.000000 0.625000
v 0.500000 0.169317 0.625000
v 0.625000 0.000000 1.000000
v 0.625000 -0.000000 -0.250000
v 0.750000 0.098208 0.375000
v 0.625000 0.000000 0.500000
v 0.750000 0.155308 0.562500
v 0.625000 0.000000 0.750000
v 0.625000 0.000000 0.000000
v 0.625000 -0.000000 -0.750000
v 0.625000 -0.000000 -1.000000
v 0.625000 0.125743 0.500000
v 0.625000 0.060440 0.250000
v 0.750000 0.034611 0.125000
v 0.625000 0.169317 0.750000
v 0.625000 0.000000 0.250000
v 0.625000 -0.000000 -0.500000
v 0.625000 0.114692 0.375000
v 0.625000 0.169317 0.625000
v -0.500000 0.000000 0.312500
v 0.000000 0.000000 0.312500
v 0.500000 0.000000 0.312500
v 0.500000 0.080326 0.250000
v 1.000000 0.000000 0.312500
v -0.750000 0.000000 0.312500
v -0.250000 0.000000 0.312500
v 0.250000 0.000000 0.312500
v 0.750000 0.000000 0.312500
v 0.625000 0.080326 0.250000
v -1.000000 0.000000 0.312500
v 0.500000 0.080326 0.312500
v 1.000000 0.000000 0.125000
v -0.750000 0.000000 0.125000
v -0.250000 0.039271 0.125000
v 0.250000 0.000000 0.125000
v 0.750000 0.060440 0.125000
v 0.750000 0.000000 0.125000
v -1.000000 0.000000 0.125000
v 0.000000 0.039271 0.125000
v 0.500000 0.000000 0.125000
v 0.500000 0.060440 0.125000
v -0.500000 0.000000 0.125000
v 0.625000 0.060440 0.125000
v 1.000000 0.000000 0.562500
v -0.250000 0.000000 0.562500
v 0.250000 0.000000 0.562500
v 0.750000 0.000000 0.562500
v 0.750000 0.169317 0.562500
v 0.000000 0.000000 0.562500
v 0.500000 0.000000 0.562500
v 0.500000 0.169317 0.562500
v 0.625000 0.169317 0.562500
v 1.000000 0.000000 0.531250
v -0.250000 0.000000 0.531250
v 0.250000 0.000000 0.531250
v 0.750000 0.000000 0.531250
v 0.500000 0.008310 0.031250
v 0.000000 0.000000 0.531250
v 0.500000 0.000000 0.531250
v 0.750000 0.008310 -0.000000
v 0.750000 0.008310 0.031250
v 1.000000 0.000000 0.062500
v -0.750000 0.000000 0.062500
v -0.250000 0.058907 0.062500
v 0.250000 0.000000 0.062500
v 0.500000 0.018981 0.062500
v 0.750000 0.000000 0.062500
v 0.000000 0.058907 0.062500
v 0.500000 0.000000 0.062500
v 0.750000 0.018981 0.062500
v -0.500000 0.000000 0.062500
v 0.625000 0.018981 0.062500
v -1.000000 0.000000 0.062500
v 1.000000 0.000000 0.031250
v -0.750000 0.000000 0.031250
v -0.250000 0.068724 0.031250
v 0.250000 0.000000 0.031250
v 0.500000 0.034611 0.062500
v 0.750000 0.000000 0.031250
v 0.000000 0.068724 0.031250
v 0.500000 0.000000 0.031250
v 0.625000 0.034611 0.125000
v -0.500000 0.000000 0.031250
v 0.625000 0.034611 0.062500
v -1.000000 0.000000 0.031250
v 0.750000 0.012147 0.031250
v 0.500000 0.012147 0.031250
v 0.500000 0.012147 0.062500
v 0.750000 0.012147 0.062500
v 0.750000 0.018981 0.031250
v 0.500000 0.018981 0.031250
v 0.625000 0.018981 0.031250
v 0.500000 0.074042 0.312500
v 0.625000 0.140008 0.500000
v 0.750000 0.140008 0.500000
v 0.750000 0.140008 0.531250
v 0.750000 0.074042 0.312500
v 0.500000 0.140008 0.531250
v 0.500000 0.098208 0.375000
v 0.625000 0.098208 0.375000
v 0.625000 0.098208 0.312500
v 0.750000 0.080326 0.250000
v 0.750000 0.080326 0.312500
v 0.625000 0.080326 0.312500
v 0.500000 0.140008 0.500000
v 0.625000 0.140008 0.531250
v 0.500000 0.155308 0.562500
v 0.625000 0.155308 0.562500
v 0.625000 0.155308 0.531250
v 0.500000 0.008310 -0.000000
v 0.625000 0.008310 -0.000000
v 0.625000 0.008310 0.031250
vn -0.0000 1.0000 -0.0000
vn -1.0000 -0.0000 -0.0000
vn 1.0000 -0.0000 -0.0000
vn -0.2794 0.9485 0.1490
vn -0.0000 0.9540 0.2997
vn 0.2794 0.9485 0.1490
vn -0.2997 0.9540 -0.0000
vn 0.1533 0.9762 0.1533
vn 0.2997 0.9540 -0.0000
vn 0.1533 0.9762 -0.1533
vn -0.0000 0.9540 -0.2997
vn -0.1533 0.9762 -0.1533
vn -0.0000 -1.0000 -0.0000
vn -0.0000 -0.0000 -1.0000
vn -0.0000 -0.0000 1.0000
vn -0.4565 0.8897 -0.0041
vn -0.0922 0.9957 0.0039
vn -0.0873 0.9039 -0.4188
vn -0.0000 0.9961 -0.0881
vn 0.0774 0.9849 0.1547
vn -0.0774 0.9849 0.1547
vn 0.1904 0.9698 0.1523
vn -0.1904 0.9698 0.1523
vn 0.2445 0.9579 0.1505
vn -0.2445 0.9579 0.1505
vt -0.375442 1.740527
vt -0.086510 1.740527
vt -0.086510 1.302468
vt -0.375442 1.302468
vt 0.452293 1.302468
vt 0.452293 1.740527
vt 0.739013 1.740527
vt 0.739013 1.302468
vt 0.202423 1.357225
vt 0.491355 1.357225
vt 0.491355 1.302468
vt 0.202423 1.302468
vt 0.780287 1.357225
vt 0.780287 1.302468
vt 1.069219 1.357225
vt 1.069219 1.302468
vt 0.452293 1.357225
vt 0.628040 1.302468
vt 0.647977 1.302468
vt 0.614103 1.357225
vt -0.375442 0.973924
vt -0.086510 0.973924
vt -0.086510 0.864410
vt -0.375442 0.864410
vt 0.202423 0.973924
vt 0.202423 0.864410
vt 0.491355 0.973924
vt 0.491355 0.864410
vt 0.780287 0.973924
vt 0.780287 0.864410
vt 1.069219 0.973924
vt 1.069219 0.864410
vt 0.452293 0.973924
vt 0.452293 0.864410
vt 0.570920 0.864410
vt 0.597617 0.864410
vt 0.537865 0.973924
vt -0.375442 0.481108
vt -0.086510 0.481108
vt -0.086510 0.426351
vt -0.375442 0.426351
vt 0.202423 0.481108
vt 0.202423 0.426351
vt 0.491355 0.481108
vt 0.491355 0.426351
vt 0.780287 0.481108
vt 0.780287 0.426351
vt 1.069219 0.481108
vt 1.069219 0.426351
vt 0.933139 0.003366
vt 0.746513 0.003366
vt 0.746513 0.140177
vt 0.933139 0.140177
vt 0.933139 0.081711
vt -0.086510 -0.011708
vt -0.375442 -0.011708
vt 0.202423 -0.011708
vt 0.491355 -0.011708
vt 0.780287 -0.011708
vt 1.069219 -0.011708
vt 1.213685 0.426351
vt 1.358151 0.426351
vt 1.358151 -0.011708
vt 1.213685 -0.011708
vt -0.086510 -0.449766
vt -0.375442 -0.449766
vt 0.202423 -0.449766
vt 0.491355 -0.449766
vt 0.780287 -0.449766
vt 1.069219 -0.449766
vt 1.358151 -0.449766
vt 1.213685 -0.449766
vt -0.086510 -0.887825
vt -0.375442 -0.887825
vt 0.202423 -0.887825
vt 0.491355 -0.887825
vt 0.780287 -0.887825
vt 1.069219 -0.887825
vt 1.358151 -0.887825
vt 1.213685 -0.887825
vt -0.664374 2.178585
vt -0.375442 2.178585
vt -0.664374 1.740527
vt -0.086510 2.178585
vt 0.202423 2.178585
vt 0.202423 1.740527
vt 0.491355 2.178585
vt 0.491355 1.740527
vt 0.780287 2.178585
vt 0.780287 1.740527
vt 1.069219 2.178585
vt 1.069219 1.740527
vt 1.213685 2.178585
vt 1.358151 2.178585
vt 1.358151 1.740527
vt 1.213685 1.740527
vt 1.647084 2.178585
vt 1.647084 1.740527
vt 1.358151 1.357225
vt 1.647084 1.357225
vt 1.647084 1.302468
vt 1.358151 1.302468
vt 1.358151 0.973924
vt 1.647084 0.973924
vt 1.647084 0.864410
vt 1.358151 0.864410
vt 1.358151 0.481108
vt 1.647084 0.481108
vt 1.647084 0.426351
vt 1.647084 -0.011708
vt 1.647084 -0.449766
vt 1.647084 -0.887825
vt 1.647084 -1.325883
vt 1.358151 -1.325883
vt 1.213685 -1.325883
vt 1.069219 -1.325883
vt 0.780287 -1.325883
vt 0.491355 -1.325883
vt 0.202423 -1.325883
vt -0.086510 -1.325883
vt -0.375442 -1.325883
vt -0.664374 -0.887825
vt -0.664374 -1.325883
vt -0.664374 -0.449766
vt -0.664374 -0.011708
vt -0.664374 0.426351
vt -0.664374 0.481108
vt -0.664374 0.973924
vt -0.664374 0.864410
vt -0.664374 1.302468
vt 0.202423 1.518265
vt 0.202423 1.415850
vt 0.202423 1.315324
vt 0.202423 0.917241
vt 0.880985 0.917241
vt 0.880985 1.740527
vt -0.000402 -0.041713
vt -0.000402 1.030020
vt 0.867557 1.030020
vt 0.867557 -0.041713
vt -0.086510 0.579295
vt 0.202423 0.579295
vt 0.202423 1.014000
vt -0.086510 1.014000
vt 0.452293 1.521497
vt 0.452293 1.411983
vt 0.739013 1.315324
vt 0.739013 1.415850
vt 0.739013 1.518265
vt 0.202423 1.078962
vt -0.086510 1.078962
vt 0.997266 1.030020
vt 0.997266 -0.041713
vt 0.781860 1.740527
vt 0.781860 1.302468
vt 0.739013 0.917241
vt 0.781860 0.917241
vt 0.880985 1.014000
vt 0.880985 1.078962
vt -0.378678 1.358182
vt -0.387684 1.796018
vt -0.626431 1.451923
vt -0.635438 1.889759
vt 0.559886 0.003366
vt 0.373260 0.003366
vt 0.373260 0.287997
vt 0.559886 0.287997
vt 0.559886 0.225669
vt 1.213685 0.973924
vt 1.213685 0.864410
vt 1.213685 0.579295
vt 1.358151 0.579295
vt 1.358151 0.799626
vt 1.213685 0.799626
vt 1.213685 0.645380
vt 1.358151 0.645380
vt 1.358151 0.535866
vt 1.213685 0.535866
vt 1.069219 0.579295
vt 1.069219 0.685200
vt 1.213685 0.685200
vt 1.358151 0.685200
vt 0.452293 0.481108
vt 0.452293 0.426351
vt 0.522145 0.426351
vt 0.500080 0.481108
vt 1.213685 1.357225
vt 0.186634 0.003366
vt 0.000008 0.003366
vt 0.000008 0.386631
vt 0.186634 0.386631
vt 1.213685 0.481108
vt 1.358151 0.875978
vt 1.213685 0.875978
vt 1.213685 1.302468
vt 1.358151 1.083439
vt 1.213685 1.083439
vt -0.375442 1.083439
vt -0.664374 1.083439
vt 1.647084 1.083439
vt 0.452293 1.083439
vt 0.565795 1.083439
vt 0.597617 1.083439
vt 0.597617 1.302468
vt 1.069219 1.083439
vt 0.780287 1.083439
vt 0.491355 1.083439
vt 0.202423 1.083439
vt -0.086510 1.083439
vt 0.279947 0.003366
vt 0.279947 0.386631
vt 0.279947 0.354919
vt 1.358151 1.521497
vt 1.213685 1.521497
vt 1.647084 1.521497
vt 0.647977 1.521497
vt 0.647977 1.740527
vt 1.069219 1.521497
vt 0.780287 1.521497
vt 0.491355 1.521497
vt 0.202423 1.521497
vt 1.069219 0.875978
vt 0.326604 0.003366
vt 0.326604 0.386631
vt 0.326604 0.320286
vt 1.073109 0.003366
vt 1.026452 0.003366
vt 1.026452 0.140177
vt 1.073109 0.140177
vt 1.073109 0.096962
vt 1.069219 0.799626
vt 0.653200 0.003366
vt 0.653200 0.287997
vt 0.653200 0.201400
vt 0.653200 0.170967
vt 0.553403 0.973924
vt 0.597617 0.973924
vt 1.069219 0.645380
vt 0.452293 0.645380
vt 0.492293 0.645380
vt 0.522145 0.645380
vt 0.522145 0.864410
vt -0.375442 0.645380
vt -0.664374 0.645380
vt 1.647084 0.645380
vt 0.780287 0.645380
vt 0.491355 0.645380
vt 0.202423 0.645380
vt -0.086510 0.645380
vt 1.213685 1.411983
vt 1.069219 1.411983
vt 1.358151 1.411983
vt 1.647084 1.411983
vt 0.631786 1.411983
vt 0.647977 1.411983
vt 0.780287 1.411983
vt 0.491355 1.411983
vt 0.202423 1.411983
vt 0.647977 1.357225
vt 1.069219 0.535866
vt 0.452293 0.535866
vt 0.466332 0.535866
vt 0.483311 0.535866
vt 0.522145 0.535866
vt -0.375442 0.535866
vt -0.664374 0.535866
vt 1.647084 0.535866
vt 0.780287 0.535866
vt 0.491355 0.535866
vt 0.202423 0.535866
vt -0.086510 0.535866
vt 0.522145 0.481108
vt 1.119765 0.003366
vt 1.119765 0.140177
vt 1.026452 0.064117
vt 1.026452 0.030862
vt 1.358151 0.759150
vt 1.213685 0.759150
vt 1.069219 0.759150
vt 0.746513 0.287997
vt 0.746513 0.235709
vt 1.213685 0.845751
vt 1.069219 0.845751
vt 1.358151 0.845751
vt 0.373260 0.386631
vt 0.373260 0.347582
s 0
usemtl Material
f 33/1/1 34/2/1 41/3/1 40/4/1
f 41/5/2 34/6/2 82/7/2 84/8/2
f 188/9/1 192/10/1 43/11/1 42/12/1
f 192/10/1 189/13/1 44/14/1 43/11/1
f 189/13/1 193/15/1 45/16/1 44/14/1
f 190/17/3 46/5/3 100/18/3 229/19/3 230/20/3
f 159/21/1 154/22/1 48/23/1 47/24/1
f 154/22/1 160/25/1 49/26/1 48/23/1
f 160/25/1 155/27/1 50/28/1 49/26/1
f 155/27/1 161/29/1 51/30/1 50/28/1
f 161/29/1 156/31/1 52/32/1 51/30/1
f 162/33/3 53/34/3 111/35/3 236/36/3 237/37/3 231/37/3
f 209/38/1 217/39/1 55/40/1 54/41/1
f 217/39/4 210/42/4 56/43/4 55/40/4
f 210/42/5 214/44/5 57/45/5 56/43/5
f 214/44/6 211/46/6 58/47/6 57/45/6
f 211/46/1 215/48/1 59/49/1 58/47/1
f 174/50/2 52/51/2 110/52/2 175/53/2 112/54/2
f 54/41/1 55/40/1 62/55/1 61/56/1
f 55/40/7 56/43/7 63/57/7 62/55/7
f 56/43/1 57/45/1 64/58/1 63/57/1
f 57/45/8 58/47/8 65/59/8 64/58/8
f 58/47/8 59/49/8 66/60/8 65/59/8
f 143/61/1 60/62/1 67/63/1 138/64/1
f 61/56/1 62/55/1 69/65/1 68/66/1
f 62/55/7 63/57/7 70/67/7 69/65/7
f 63/57/1 64/58/1 71/68/1 70/67/1
f 64/58/1 65/59/1 72/69/1 71/68/1
f 65/59/9 66/60/9 73/70/9 72/69/9
f 138/64/1 67/63/1 74/71/1 151/72/1
f 68/66/1 69/65/1 76/73/1 75/74/1
f 69/65/7 70/67/7 77/75/7 76/73/7
f 70/67/1 71/68/1 78/76/1 77/75/1
f 71/68/10 72/69/10 79/77/10 78/76/10
f 72/69/10 73/70/10 80/78/10 79/77/10
f 151/72/1 74/71/1 81/79/1 144/80/1
f 1/81/1 12/82/1 33/1/1 11/83/1
f 12/82/1 13/84/1 34/2/1 33/1/1
f 13/84/1 14/85/1 35/86/1 34/2/1
f 14/85/1 15/87/1 36/88/1 35/86/1
f 15/87/1 16/89/1 37/90/1 36/88/1
f 16/89/1 17/91/1 38/92/1 37/90/1
f 137/93/1 18/94/1 39/95/1 142/96/1
f 18/94/1 2/97/1 19/98/1 39/95/1
f 190/99/1 187/100/1 20/101/1 46/102/1
f 162/103/1 158/104/1 21/105/1 53/106/1
f 213/107/1 208/108/1 22/109/1 60/62/1
f 60/62/1 22/109/1 23/110/1 67/63/1
f 67/63/1 23/110/1 24/111/1 74/71/1
f 74/71/1 24/111/1 25/112/1 81/79/1
f 81/79/1 25/112/1 4/113/1 26/114/1
f 144/80/1 81/79/1 26/114/1 145/115/1
f 79/77/1 80/78/1 27/116/1 28/117/1
f 78/76/10 79/77/10 28/117/10 29/118/10
f 77/75/11 78/76/11 29/118/11 30/119/11
f 76/73/12 77/75/12 30/119/12 31/120/12
f 75/74/1 76/73/1 31/120/1 32/121/1
f 5/122/1 75/74/1 32/121/1 3/123/1
f 6/124/1 68/66/1 75/74/1 5/122/1
f 7/125/1 61/56/1 68/66/1 6/124/1
f 8/126/1 54/41/1 61/56/1 7/125/1
f 219/127/1 209/38/1 54/41/1 8/126/1
f 164/128/1 159/21/1 47/24/1 9/129/1
f 11/83/1 33/1/1 40/4/1 10/130/1
f 83/86/13 93/131/13 98/132/13 102/133/13 85/12/13 104/134/13 106/135/13 90/136/13
f 42/137/14 41/138/14 84/139/14 85/140/14
f 34/141/15 35/142/15 83/143/15 82/144/15
f 35/6/3 130/145/3 179/146/3 188/17/3 42/5/3 85/8/3 102/147/3 98/148/3 93/149/3 83/7/3
f 86/2/1 87/86/1 91/131/1 99/132/1 101/133/1 89/12/1 88/3/1
f 82/144/15 83/143/15 87/150/15 86/151/15
f 85/140/14 84/139/14 88/152/14 89/153/14
f 84/8/2 82/7/2 86/154/2 88/155/2
f 90/7/3 106/156/3 107/157/3 92/154/3
f 87/150/15 83/143/15 90/158/15 92/159/15
f 91/131/1 87/86/1 92/136/1 107/135/1 105/134/1 89/12/1 101/133/1 99/132/1
f 88/3/16 95/160/16 94/161/16 86/2/16
f 95/160/17 97/162/17 96/163/17 94/161/17
f 9/129/18 97/162/18 95/160/18 47/24/18
f 121/164/2 45/165/2 103/166/2 122/167/2 233/168/2
f 235/169/14 238/169/14 165/31/14 109/31/14
f 104/143/14 105/150/14 107/159/14 106/158/14
f 85/8/2 89/155/2 105/157/2 104/156/2
f 165/31/1 238/169/1 163/170/1 157/32/1
f 140/171/15 46/172/15 100/173/15 146/174/15
f 216/175/1 148/176/1 113/177/1 218/178/1
f 143/171/14 59/179/14 244/180/14 245/181/14
f 150/171/15 53/172/15 111/182/15 147/181/15
f 213/183/3 60/184/3 194/185/3 195/186/3
f 243/187/14 240/187/14 232/15/14 116/15/14
f 135/188/2 38/189/2 114/190/2 136/191/2
f 191/48/1 246/192/1 245/61/1 244/49/1
f 142/171/15 39/172/15 115/193/15 149/194/15
f 146/195/19 100/102/19 128/196/19 152/197/19
f 238/169/1 237/103/1 236/106/1 163/170/1
f 10/130/1 40/4/1 124/198/1 118/199/1
f 46/102/1 20/101/1 123/200/1 127/196/1
f 46/5/3 127/201/3 139/202/3 128/203/3 100/204/3
f 44/14/1 45/16/1 121/205/1 126/206/1
f 43/11/1 44/14/1 126/206/1 120/207/1
f 42/12/1 43/11/1 120/207/1 125/208/1
f 41/3/1 42/12/1 125/208/1 119/209/1
f 40/4/1 41/3/1 119/209/1 124/198/1
f 184/210/2 135/188/2 136/191/2 185/211/2 241/212/2
f 149/96/1 115/95/1 133/213/1 153/214/1
f 39/95/1 19/98/1 129/215/1 132/213/1
f 39/6/3 132/145/3 133/216/3 115/217/3
f 37/90/1 38/92/1 135/218/1 131/219/1
f 36/88/1 37/90/1 131/219/1 134/220/1
f 35/86/1 36/88/1 134/220/1 130/221/1
f 114/92/1 149/96/1 153/214/1 136/218/1
f 103/16/19 146/195/19 152/197/19 122/205/19
f 38/179/15 142/171/15 149/194/15 114/222/15
f 193/223/2 184/210/2 241/211/2 116/224/2 232/225/2
f 117/99/14 230/99/14 240/187/14 243/187/14
f 52/179/15 150/171/15 147/181/15 110/180/15
f 60/172/14 143/171/14 245/181/14 194/182/14
f 215/226/2 203/227/2 222/228/2 200/228/2 225/229/2 221/229/2 191/230/2
f 45/179/15 140/171/15 146/174/15 103/231/15
f 156/232/2 121/164/2 233/167/2 109/233/2 165/234/2 227/235/2
f 232/15/1 240/187/1 228/195/1 239/16/1
f 80/78/1 144/80/1 145/115/1 27/116/1
f 17/91/1 137/93/1 142/96/1 38/92/1
f 73/70/1 151/72/1 144/80/1 80/78/1
f 66/60/1 138/64/1 151/72/1 73/70/1
f 59/49/1 143/61/1 138/64/1 66/60/1
f 152/197/14 128/196/14 139/196/14 234/197/14
f 234/197/1 139/196/1 108/103/1 235/169/1
f 122/205/14 152/197/14 234/197/14 233/205/14
f 118/199/1 124/198/1 159/21/1 164/128/1
f 127/196/1 123/200/1 158/104/1 162/103/1
f 127/201/3 162/33/3 231/37/3 237/236/3 108/237/3 139/202/3
f 126/206/1 121/205/1 156/31/1 161/29/1
f 120/207/1 126/206/1 161/29/1 155/27/1
f 125/208/1 120/207/1 155/27/1 160/25/1
f 119/209/1 125/208/1 160/25/1 154/22/1
f 124/198/1 119/209/1 154/22/1 159/21/1
f 110/32/1 147/170/1 177/175/1 175/238/1
f 53/34/3 171/239/3 148/240/3 170/241/3 111/242/3
f 147/170/1 111/106/1 170/176/1 177/175/1
f 9/129/1 47/24/1 167/243/1 172/244/1
f 53/106/1 21/105/1 166/245/1 171/176/1
f 206/178/1 204/177/1 224/107/1 226/192/1
f 51/30/1 52/32/1 174/238/1 169/246/1
f 50/28/20 51/30/20 169/246/20 173/247/20
f 49/26/5 50/28/5 173/247/5 168/248/5
f 48/23/21 49/26/21 168/248/21 176/249/21
f 47/24/1 48/23/1 176/249/1 167/243/1
f 136/218/1 153/214/1 186/250/1 185/251/1
f 246/192/1 195/107/1 194/62/1 245/61/1
f 153/214/1 133/213/1 182/252/1 186/250/1
f 132/213/1 129/215/1 178/253/1 181/252/1
f 132/145/3 181/146/3 141/254/3 182/255/3 133/216/3
f 131/219/1 135/218/1 184/251/1 180/256/1
f 134/220/1 131/219/1 180/256/1 183/257/1
f 130/221/1 134/220/1 183/257/1 179/258/1
f 242/250/1 141/252/1 117/99/1 243/187/1
f 185/251/14 186/250/14 242/250/14 241/251/14
f 186/250/14 182/252/14 141/252/14 242/250/14
f 181/252/1 178/253/1 187/100/1 190/99/1
f 181/146/3 190/17/3 230/20/3 117/259/3 141/254/3
f 180/256/1 184/251/1 193/15/1 189/13/1
f 183/257/1 180/256/1 189/13/1 192/10/1
f 179/258/1 183/257/1 192/10/1 188/9/1
f 112/238/1 216/175/1 218/178/1 212/260/1
f 175/238/14 177/175/14 216/175/14 112/238/14
f 171/239/3 201/261/3 223/262/3 204/263/3 113/264/3 148/240/3
f 177/175/14 170/176/14 148/176/14 216/175/14
f 172/244/1 167/243/1 197/265/1 207/266/1
f 171/176/1 166/245/1 196/267/1 201/177/1
f 169/246/1 174/238/1 203/260/1 199/268/1
f 173/247/22 169/246/22 199/268/22 202/269/22
f 168/248/5 173/247/5 202/269/5 198/270/5
f 176/249/23 168/248/23 198/270/23 205/271/23
f 167/243/1 176/249/1 205/271/1 197/265/1
f 218/178/14 206/178/14 200/260/14 212/260/14
f 201/261/3 213/183/3 195/186/3 220/272/3 224/272/3 204/262/3 223/262/3
f 207/266/1 197/265/1 209/38/1 219/127/1
f 201/177/1 196/267/1 208/108/1 213/107/1
f 199/268/1 203/260/1 215/48/1 211/46/1
f 202/269/24 199/268/24 211/46/24 214/44/24
f 198/270/5 202/269/5 214/44/5 210/42/5
f 205/271/25 198/270/25 210/42/25 217/39/25
f 197/265/1 205/271/1 217/39/1 209/38/1
f 59/273/2 215/226/2 191/229/2 244/274/2
f 246/192/14 226/192/14 224/107/14 220/107/14 195/107/14
f 221/48/14 225/48/14 226/192/14 246/192/14 191/48/14
f 203/227/2 174/50/2 112/53/2 212/228/2 200/275/2 222/276/2
f 200/260/1 206/178/1 226/192/1 225/48/1
f 113/177/14 204/177/14 206/178/14 218/178/14
f 108/103/14 237/103/14 238/169/14 235/169/14
f 240/187/1 230/99/1 229/102/1 228/195/1
f 233/205/1 234/197/1 235/169/1 109/31/1
f 111/277/14 147/278/14 163/174/14 236/173/14
f 147/278/14 110/279/14 157/231/14 163/174/14
f 52/51/2 156/232/2 227/233/2 165/233/2 157/280/2 110/281/2
f 241/251/1 242/250/1 243/187/1 116/15/1
f 146/282/14 103/283/14 239/222/14 228/194/14
f 100/284/14 146/282/14 228/194/14 229/193/14
f 45/165/2 193/223/2 232/224/2 239/285/2 103/286/2
