# Blender 4.1.1
# www.blender.org
mtllib floor.mtl
o Plane
v -5.910368 0.000000 4.924318
v 5.910368 0.000000 4.924318
v -5.910368 0.000000 -4.924318
v 5.910368 0.000000 -4.924318
v 0.192803 -0.106192 -1.897125
v 0.192803 0.387590 -1.897125
v 0.192803 -0.106192 -2.335819
v 0.192803 0.387590 -2.335819
v 5.796029 -0.106192 -1.897125
v 5.796029 0.387590 -1.897125
v 5.796029 -0.106192 -2.335819
v 5.796029 0.387590 -2.335819
v -5.912347 -0.106192 1.599631
v -5.912347 0.387590 1.599631
v -5.912347 -0.106192 1.160938
v -5.912347 0.387590 1.160938
v -0.309121 -0.106192 1.599631
v -0.309121 0.387590 1.599631
v -0.309121 -0.106192 1.160938
v -0.309121 0.387590 1.160938
v 3.240020 -0.106192 4.937970
v 3.240020 0.387590 4.937970
v 2.801327 -0.106192 4.937937
v 2.801327 0.387590 4.937937
v 3.240430 -0.106192 -0.665256
v 3.240430 0.387590 -0.665256
v 2.801737 -0.106192 -0.665288
v 2.801737 0.387590 -0.665288
vn -0.0000 1.0000 -0.0000
vn -1.0000 -0.0000 -0.0000
vn -0.0000 -0.0000 -1.0000
vn 1.0000 -0.0000 -0.0000
vn -0.0000 -0.0000 1.0000
vn -0.0000 -1.0000 -0.0000
vn -0.0001 -0.0000 1.0000
vn -1.0000 -0.0000 -0.0001
vn 0.0001 -0.0000 -1.0000
vn 1.0000 -0.0000 0.0001
vt -1.020084 -1.020084
vt 2.020084 -1.020084
vt 2.020084 2.020084
vt -1.020084 2.020084
vt 0.375000 0.000000
vt 0.625000 0.000000
vt 0.625000 0.250000
vt 0.375000 0.250000
vt 0.625000 0.500000
vt 0.375000 0.500000
vt 0.625000 0.750000
vt 0.375000 0.750000
vt 0.625000 1.000000
vt 0.375000 1.000000
vt 0.125000 0.500000
vt 0.125000 0.750000
vt 0.875000 0.500000
vt 0.875000 0.750000
s 0
usemtl Material.001
f 1/1/1 2/2/1 4/3/1 3/4/1
usemtl Material.002
f 5/5/2 6/6/2 8/7/2 7/8/2
f 7/8/3 8/7/3 12/9/3 11/10/3
f 11/10/4 12/9/4 10/11/4 9/12/4
f 9/12/5 10/11/5 6/13/5 5/14/5
f 7/15/6 11/10/6 9/12/6 5/16/6
f 12/9/1 8/17/1 6/18/1 10/11/1
f 13/5/2 14/6/2 16/7/2 15/8/2
f 15/8/3 16/7/3 20/9/3 19/10/3
f 19/10/4 20/9/4 18/11/4 17/12/4
f 17/12/5 18/11/5 14/13/5 13/14/5
f 15/15/6 19/10/6 17/12/6 13/16/6
f 20/9/1 16/17/1 14/18/1 18/11/1
f 21/5/7 22/6/7 24/7/7 23/8/7
f 23/8/8 24/7/8 28/9/8 27/10/8
f 27/10/9 28/9/9 26/11/9 25/12/9
f 25/12/10 26/11/10 22/13/10 21/14/10
f 23/15/6 27/10/6 25/12/6 21/16/6
f 28/9/1 24/17/1 22/18/1 26/11/1
