# Blender 3.6.2
# www.blender.org
mtllib floor.mtl
o Plane
v -1.000000 0.000000 1.000000
v 1.000000 0.000000 1.000000
v -1.000000 0.000000 -1.000000
v 1.000000 0.000000 -1.000000
v -1.000000 0.000000 -0.750000
v -1.000000 0.000000 -0.500000
v -1.000000 0.000000 -0.250000
v -1.000000 0.000000 0.000000
v -1.000000 0.000000 0.250000
v -1.000000 0.000000 0.500000
v -1.000000 0.000000 0.750000
v -0.750000 0.000000 1.000000
v -0.500000 0.000000 1.000000
v -0.250000 0.000000 1.000000
v 0.000000 0.000000 1.000000
v 0.250000 0.000000 1.000000
v 0.500000 0.000000 1.000000
v 0.750000 0.000000 1.000000
v 1.000000 0.000000 0.750000
v 1.000000 0.000000 0.500000
v 1.000000 0.000000 0.250000
v 1.000000 0.000000 0.000000
v 1.000000 0.000000 -0.250000
v 1.000000 0.000000 -0.500000
v 1.000000 0.000000 -0.750000
v 0.750000 0.000000 -1.000000
v 0.500000 0.000000 -1.000000
v 0.250000 0.000000 -1.000000
v 0.000000 0.000000 -1.000000
v -0.250000 0.000000 -1.000000
v -0.500000 0.000000 -1.000000
v -0.750000 0.000000 -1.000000
v -0.750000 0.000000 0.750000
v -0.500000 0.000000 0.750000
v -0.250000 0.000000 0.750000
v 0.000000 0.000000 0.750000
v 0.250000 0.000000 0.750000
v 0.500000 0.000000 0.750000
v 0.750000 0.000000 0.750000
v -0.750000 0.000000 0.500000
v -0.500000 0.000000 0.500000
v -0.250000 0.000000 0.500000
v 0.000000 0.000000 0.500000
v 0.250000 0.000000 0.500000
v 0.500000 0.000000 0.500000
v 0.750000 0.000000 0.500000
v -0.750000 0.000000 0.250000
v -0.500000 0.000000 0.250000
v -0.250000 0.000000 0.250000
v 0.000000 0.000000 0.250000
v 0.250000 0.000000 0.250000
v 0.500000 0.000000 0.250000
v 0.750000 0.000000 0.250000
v -0.750000 0.000000 0.000000
v -0.500000 0.000000 0.000000
v -0.250000 0.078542 0.000000
v 0.000000 0.078542 0.000000
v 0.250000 0.000000 0.000000
v 0.500000 0.000000 0.000000
v 0.750000 0.000000 0.000000
v -0.750000 0.000000 -0.250000
v -0.500000 0.000000 -0.250000
v -0.250000 0.078542 -0.250000
v 0.000000 0.078542 -0.250000
v 0.250000 0.078542 -0.250000
v 0.500000 0.000000 -0.250000
v 0.750000 0.000000 -0.250000
v -0.750000 0.000000 -0.500000
v -0.500000 0.000000 -0.500000
v -0.250000 0.078542 -0.500000
v 0.000000 0.078542 -0.500000
v 0.250000 0.078542 -0.500000
v 0.500000 0.000000 -0.500000
v 0.750000 0.000000 -0.500000
v -0.750000 0.000000 -0.750000
v -0.500000 0.000000 -0.750000
v -0.250000 0.078542 -0.750000
v 0.000000 0.078542 -0.750000
v 0.250000 0.000000 -0.750000
v 0.500000 0.000000 -0.750000
v 0.750000 0.000000 -0.750000
v -0.500000 0.248086 0.750000
v -0.250000 0.248086 0.750000
v -0.500000 0.248086 0.500000
v -0.250000 0.248086 0.500000
v -0.500000 0.285160 0.750000
v -0.250000 0.285160 0.750000
v -0.500000 0.285160 0.500000
v -0.250000 0.285160 0.500000
v 0.337129 0.248086 0.750000
v -0.250000 0.285160 0.623155
v 0.337129 0.285160 0.750000
v -0.250000 0.248086 0.623155
v -0.760593 0.152743 0.781669
v -0.752800 0.154446 0.531796
v -0.974963 0.132692 0.835167
v -0.967170 0.134396 0.585294
v -0.250000 0.248086 0.564707
v -0.250000 0.285160 0.564707
v 0.750000 0.125743 0.500000
v -0.250000 0.285160 0.507337
v -0.250000 0.248086 0.507337
v 0.500000 0.125743 0.500000
v -0.250000 0.248086 0.280151
v -0.250000 0.285160 0.280151
v 0.337129 0.248086 0.280151
v 0.337129 0.285160 0.280151
v 0.500000 0.125743 0.250000
v 0.750000 0.125743 0.250000
v 0.500000 0.060440 0.250000
v 0.750000 0.060440 0.250000
v 0.500000 0.060440 0.000000
v 0.750000 0.060440 0.000000
v 0.500000 0.169317 0.750000
v 0.750000 0.169317 0.750000
v 0.500000 0.169317 0.500000
v 0.750000 0.169317 0.500000
vn -0.0000 1.0000 -0.0000
vn -1.0000 -0.0000 -0.0000
vn 1.0000 -0.0000 -0.0000
vn -0.1533 0.9762 0.1533
vn -0.0000 0.9540 0.2997
vn 0.1533 0.9762 0.1533
vn -0.2997 0.9540 -0.0000
vn 0.2997 0.9540 -0.0000
vn 0.1533 0.9762 -0.1533
vn -0.0000 0.9540 -0.2997
vn -0.1533 0.9762 -0.1533
vn -0.0000 -1.0000 -0.0000
vn -0.0000 -0.0000 -1.0000
vn -0.0000 -0.0000 1.0000
vn 0.4565 -0.8897 0.0041
vn 0.0922 -0.9957 -0.0039
vn 0.0873 -0.9039 0.4188
vt 0.125000 0.125000
vt 0.250000 0.125000
vt 0.250000 0.250000
vt 0.125000 0.250000
vt 0.375000 0.125000
vt 0.500000 0.125000
vt 0.500000 0.250000
vt 0.375000 0.250000
vt 0.625000 0.125000
vt 0.625000 0.250000
vt 0.750000 0.125000
vt 0.750000 0.250000
vt 0.875000 0.125000
vt 0.875000 0.250000
vt 0.250000 0.375000
vt 0.125000 0.375000
vt 0.375000 0.375000
vt 0.500000 0.375000
vt 0.625000 0.375000
vt 0.750000 0.375000
vt 0.875000 0.375000
vt 0.250000 0.500000
vt 0.125000 0.500000
vt 0.375000 0.500000
vt 0.500000 0.500000
vt 0.625000 0.500000
vt 0.750000 0.500000
vt 0.250000 0.625000
vt 0.125000 0.625000
vt 0.375000 0.625000
vt 0.500000 0.625000
vt 0.625000 0.625000
vt 0.750000 0.625000
vt 0.875000 0.500000
vt 0.875000 0.625000
vt 0.250000 0.750000
vt 0.125000 0.750000
vt 0.375000 0.750000
vt 0.500000 0.750000
vt 0.625000 0.750000
vt 0.750000 0.750000
vt 0.875000 0.750000
vt 0.250000 0.875000
vt 0.125000 0.875000
vt 0.375000 0.875000
vt 0.500000 0.875000
vt 0.625000 0.875000
vt 0.750000 0.875000
vt 0.875000 0.875000
vt 0.000000 0.000000
vt 0.125000 0.000000
vt 0.000000 0.125000
vt 0.250000 0.000000
vt 0.375000 0.000000
vt 0.500000 0.000000
vt 0.625000 0.000000
vt 0.750000 0.000000
vt 0.875000 0.000000
vt 1.000000 0.000000
vt 1.000000 0.125000
vt 1.000000 0.250000
vt 1.000000 0.375000
vt 1.000000 0.500000
vt 1.000000 0.625000
vt 1.000000 0.750000
vt 1.000000 0.875000
vt 1.000000 1.000000
vt 0.875000 1.000000
vt 0.750000 1.000000
vt 0.625000 1.000000
vt 0.500000 1.000000
vt 0.375000 1.000000
vt 0.250000 1.000000
vt 0.125000 1.000000
vt 0.000000 0.875000
vt 0.000000 1.000000
vt 0.000000 0.750000
vt 0.000000 0.625000
vt 0.000000 0.500000
vt 0.000000 0.375000
vt 0.000000 0.250000
vt 0.375000 0.246332
vt 0.375000 0.217646
vt 0.375000 0.188423
s 0
f 33/1/1 34/2/1 41/3/1 40/4/1
f 41/3/2 34/2/2 82/2/2 84/3/2
f 35/5/1 36/6/1 43/7/1 42/8/1
f 36/6/1 37/9/1 44/10/1 43/7/1
f 37/9/1 38/11/1 45/12/1 44/10/1
f 39/13/3 46/14/3 117/14/3 115/13/3
f 40/4/1 41/3/1 48/15/1 47/16/1
f 41/3/1 42/8/1 49/17/1 48/15/1
f 42/8/1 43/7/1 50/18/1 49/17/1
f 43/7/1 44/10/1 51/19/1 50/18/1
f 44/10/1 45/12/1 52/20/1 51/19/1
f 46/14/3 53/21/3 109/21/3 100/14/3
f 47/16/1 48/15/1 55/22/1 54/23/1
f 48/15/4 49/17/4 56/24/4 55/22/4
f 49/17/5 50/18/5 57/25/5 56/24/5
f 50/18/6 51/19/6 58/26/6 57/25/6
f 51/19/1 52/20/1 59/27/1 58/26/1
f 59/27/2 52/20/2 110/20/2 112/27/2
f 54/23/1 55/22/1 62/28/1 61/29/1
f 55/22/7 56/24/7 63/30/7 62/28/7
f 56/24/1 57/25/1 64/31/1 63/30/1
f 57/25/6 58/26/6 65/32/6 64/31/6
f 58/26/6 59/27/6 66/33/6 65/32/6
f 59/27/1 60/34/1 67/35/1 66/33/1
f 61/29/1 62/28/1 69/36/1 68/37/1
f 62/28/7 63/30/7 70/38/7 69/36/7
f 63/30/1 64/31/1 71/39/1 70/38/1
f 64/31/1 65/32/1 72/40/1 71/39/1
f 65/32/8 66/33/8 73/41/8 72/40/8
f 66/33/1 67/35/1 74/42/1 73/41/1
f 68/37/1 69/36/1 76/43/1 75/44/1
f 69/36/7 70/38/7 77/45/7 76/43/7
f 70/38/1 71/39/1 78/46/1 77/45/1
f 71/39/9 72/40/9 79/47/9 78/46/9
f 72/40/9 73/41/9 80/48/9 79/47/9
f 73/41/1 74/42/1 81/49/1 80/48/1
f 1/50/1 12/51/1 33/1/1 11/52/1
f 12/51/1 13/53/1 34/2/1 33/1/1
f 13/53/1 14/54/1 35/5/1 34/2/1
f 14/54/1 15/55/1 36/6/1 35/5/1
f 15/55/1 16/56/1 37/9/1 36/6/1
f 16/56/1 17/57/1 38/11/1 37/9/1
f 17/57/1 18/58/1 39/13/1 38/11/1
f 18/58/1 2/59/1 19/60/1 39/13/1
f 39/13/1 19/60/1 20/61/1 46/14/1
f 46/14/1 20/61/1 21/62/1 53/21/1
f 53/21/1 21/62/1 22/63/1 60/34/1
f 60/34/1 22/63/1 23/64/1 67/35/1
f 67/35/1 23/64/1 24/65/1 74/42/1
f 74/42/1 24/65/1 25/66/1 81/49/1
f 81/49/1 25/66/1 4/67/1 26/68/1
f 80/48/1 81/49/1 26/68/1 27/69/1
f 79/47/1 80/48/1 27/69/1 28/70/1
f 78/46/9 79/47/9 28/70/9 29/71/9
f 77/45/10 78/46/10 29/71/10 30/72/10
f 76/43/11 77/45/11 30/72/11 31/73/11
f 75/44/1 76/43/1 31/73/1 32/74/1
f 5/75/1 75/44/1 32/74/1 3/76/1
f 6/77/1 68/37/1 75/44/1 5/75/1
f 7/78/1 61/29/1 68/37/1 6/77/1
f 8/79/1 54/23/1 61/29/1 7/78/1
f 9/80/1 47/16/1 54/23/1 8/79/1
f 10/81/1 40/4/1 47/16/1 9/80/1
f 11/52/1 33/1/1 40/4/1 10/81/1
f 83/5/12 93/8/12 98/8/12 102/8/12 85/8/12 104/8/12 106/8/12 90/5/12
f 42/8/13 41/3/13 84/3/13 85/8/13
f 34/2/14 35/5/14 83/5/14 82/2/14
f 35/5/3 42/8/3 85/8/3 102/82/3 98/83/3 93/84/3 83/5/3
f 86/2/1 87/5/1 91/84/1 99/83/1 101/82/1 89/8/1 88/3/1
f 82/2/14 83/5/14 87/5/14 86/2/14
f 85/8/13 84/3/13 88/3/13 89/8/13
f 84/3/2 82/2/2 86/2/2 88/3/2
f 90/5/3 106/8/3 107/8/3 92/5/3
f 87/5/14 83/5/14 90/5/14 92/5/14
f 91/84/1 87/5/1 92/5/1 107/8/1 105/84/1 89/84/1 101/84/1 99/84/1
f 88/3/15 86/2/15 94/2/15 95/3/15
f 95/3/16 94/2/16 96/2/16 97/3/16
f 9/80/17 47/16/17 95/3/17 97/3/17
f 52/20/2 45/12/2 103/12/2 108/20/2
f 103/12/1 100/14/1 109/21/1 108/20/1
f 104/8/13 105/8/13 107/8/13 106/8/13
f 85/8/2 89/8/2 105/8/2 104/8/2
f 53/21/13 52/20/13 108/20/13 109/21/13
f 45/12/14 46/14/14 100/14/14 103/12/14
f 110/20/1 111/21/1 113/34/1 112/27/1
f 60/34/13 59/27/13 112/27/13 113/34/13
f 52/20/14 53/21/14 111/21/14 110/20/14
f 53/21/3 60/34/3 113/34/3 111/21/3
f 114/11/1 115/13/1 117/14/1 116/12/1
f 45/12/2 38/11/2 114/11/2 116/12/2
f 46/14/13 45/12/13 116/12/13 117/14/13
f 38/11/14 39/13/14 115/13/14 114/11/14
